<svg id="Whiteboard" xmlns="http://www.w3.org/2000/svg" viewBox="0 0 369.5 390.02"><defs><style>.cls-1{fill:#263238;}.cls-2{fill:#fff;}.cls-3{fill:#e0e0e0;}.cls-4{fill:#455a64;}.cls-5{fill:#e8505b;}.cls-6{fill:#ebebeb;}.cls-7{font-size:12px;font-family:MyriadPro-Regular, Myriad Pro;}.cls-8{letter-spacing:0.01em;}.cls-9{letter-spacing:-0.02em;}.cls-10{letter-spacing:-0.01em;}.cls-11{letter-spacing:-0.06em;}</style></defs><rect class="cls-1" x="177.7" y="243.91" width="7.97" height="146.11"/><polygon class="cls-1" points="123.97 390.02 179.6 336.52 183.59 340.09 131.77 390.02 123.97 390.02"/><polygon class="cls-1" points="239.12 389.9 183.62 336.52 179.63 340.09 231.45 390.02 239.12 389.9"/><rect class="cls-2" x="3.23" y="7.04" width="359.06" height="261.72"/><path class="cls-1" d="M555.43,350.91c0-1.75-.09-103-.22-261.71l.22.21-359,0h0l.26-.26c0,93.88,0,182.88,0,261.71l-.24-.23,359.06.23-359.06.24h-.24v-.24c0-78.83,0-167.83,0-261.71v-.26h.29l359,0h.21v.21C555.51,247.88,555.43,349.17,555.43,350.91Z" transform="translate(-193.14 -82.15)"/><path class="cls-1" d="M542,148.54c0,.14-72.67.26-162.29.26s-162.3-.12-162.3-.26,72.65-.26,162.3-.26S542,148.4,542,148.54Z" transform="translate(-193.14 -82.15)"/><path class="cls-1" d="M318,350.91c-.14,0-.26-56.2-.26-125.51s.12-125.53.26-125.53.26,56.19.26,125.53S318.14,350.91,318,350.91Z" transform="translate(-193.14 -82.15)"/><path class="cls-1" d="M437.1,350.91c-.15,0-.26-56.2-.26-125.51s.11-125.53.26-125.53.26,56.19.26,125.53S437.24,350.91,437.1,350.91Z" transform="translate(-193.14 -82.15)"/><path class="cls-3" d="M258.94,158.42s-2.51,22.89.71,35.42l30.58-1.34s-6.55-22.57-2.53-32.57Z" transform="translate(-193.14 -82.15)"/><path class="cls-3" d="M218.54,171s-2.5,22.89.72,35.42l30.57-1.34s-6.55-22.58-2.52-32.58Z" transform="translate(-193.14 -82.15)"/><path class="cls-4" d="M258.94,158.42s.21,24.71,1.46,32.25l31-1.47s-2.72-24.29-1.67-30.78Z" transform="translate(-193.14 -82.15)"/><path class="cls-2" d="M274.2,161.92h.12l.33,0a7.22,7.22,0,0,1,1.29.07,7,7,0,0,1,2,.58,6.5,6.5,0,0,1,2.15,1.7,7.52,7.52,0,0,1,1.48,3,7.16,7.16,0,0,1-.32,3.83,11.71,11.71,0,0,1-.87,1.92,19.49,19.49,0,0,0-1,1.93,16.57,16.57,0,0,0-1.25,4.4v.1H278l-3.06,0-3.21.05h-.12v-.11a9.11,9.11,0,0,0-1.49-4.24c-.37-.63-.78-1.23-1.16-1.83a19.28,19.28,0,0,1-1.09-1.78,6,6,0,0,1-.48-3.77,8,8,0,0,1,1.19-3.09,5.86,5.86,0,0,1,2-1.81,7.14,7.14,0,0,1,1.9-.74,9.58,9.58,0,0,1,1.27-.21h.33l-.33,0a8.66,8.66,0,0,0-1.25.24,8.11,8.11,0,0,0-1.86.76,5.86,5.86,0,0,0-1.95,1.8,7.88,7.88,0,0,0-1.14,3,5.75,5.75,0,0,0,.49,3.65,18.41,18.41,0,0,0,1.08,1.75c.38.6.79,1.2,1.17,1.84a9.3,9.3,0,0,1,1.53,4.34l-.12-.11,3.21-.05,3.06-.05-.11.1a16.45,16.45,0,0,1,1.28-4.46,18.82,18.82,0,0,1,1-1.95A11.19,11.19,0,0,0,281,171a7,7,0,0,0,.34-3.73,7.2,7.2,0,0,0-1.43-2.92,6.25,6.25,0,0,0-2.07-1.69,7.39,7.39,0,0,0-1.93-.61,7.73,7.73,0,0,0-1.28-.1h-.45Z" transform="translate(-193.14 -82.15)"/><path class="cls-2" d="M275.79,179.13a.65.65,0,0,1,0-.1l0-.28c0-.26-.1-.63-.17-1.11-.14-1-.35-2.35-.49-4.09,0-.43-.06-.89-.08-1.36s0-1,0-1.48a4.3,4.3,0,0,1,.35-1.55,2.32,2.32,0,0,1,1.19-1.18,1.55,1.55,0,0,1,1.68.32,1.14,1.14,0,0,1,.36.84,1.5,1.5,0,0,1-.31.89,2,2,0,0,1-.75.6,3.7,3.7,0,0,1-.92.31,11.42,11.42,0,0,1-2,.23,11.6,11.6,0,0,1-2-.1,3.48,3.48,0,0,1-.94-.27,2.51,2.51,0,0,1-.78-.55,1.93,1.93,0,0,1-.45-.83,1.45,1.45,0,0,1,.11-.92,1.25,1.25,0,0,1,.65-.63,1.12,1.12,0,0,1,.88,0,1.72,1.72,0,0,1,.66.56,2.17,2.17,0,0,1,.33.77,9.84,9.84,0,0,1,.16,1.58c.05,1,.1,2,.15,2.84.08,1.73.15,3.14.2,4.11,0,.48,0,.86.05,1.12s0,.22,0,.29v.1a.36.36,0,0,1,0-.1l0-.29c0-.26,0-.63-.07-1.12-.06-1-.14-2.37-.24-4.1-.05-.87-.1-1.82-.16-2.84a10.72,10.72,0,0,0-.16-1.57,2.22,2.22,0,0,0-.32-.74,1.67,1.67,0,0,0-.62-.53,1.08,1.08,0,0,0-.81,0,1.15,1.15,0,0,0-.6.59,1.34,1.34,0,0,0-.11.86,1.72,1.72,0,0,0,.43.78,2.8,2.8,0,0,0,1.66.8,11.44,11.44,0,0,0,1.95.09,11.3,11.3,0,0,0,1.94-.22,4,4,0,0,0,.9-.3,2,2,0,0,0,.71-.57,1.46,1.46,0,0,0,.3-.84,1.11,1.11,0,0,0-.33-.78,1.51,1.51,0,0,0-1.59-.3,2.26,2.26,0,0,0-1.14,1.14,4.05,4.05,0,0,0-.35,1.51c0,.51,0,1,0,1.48s0,.92.07,1.36c.13,1.73.33,3.12.45,4.09.07.47.12.85.16,1.1l0,.29A.82.82,0,0,1,275.79,179.13Z" transform="translate(-193.14 -82.15)"/><path class="cls-2" d="M271.71,179.29a10.12,10.12,0,0,1,.08,1c0,.75.09,1.65.14,2.69l0-.07,2.08,2.41-.11,0,2.42-.13-.11.05c.39-.48.79-1,1.21-1.47l.6-.73,0,.09c0-1.41-.07-2.75-.1-4l.14.12-4.51.05h-1.3a2.86,2.86,0,0,1-.49,0,2.55,2.55,0,0,1,.43,0l1.27-.06L278,179h.13v.13c0,1.22.08,2.56.12,4v.06l0,0-.6.73-1.21,1.47,0,0h-.06l-2.41.12h-.07l0,0-2.05-2.44,0,0v0q0-1.61,0-2.76C271.69,179.62,271.7,179.28,271.71,179.29Z" transform="translate(-193.14 -82.15)"/><path class="cls-2" d="M277.94,182.79l-.23-.1a5.87,5.87,0,0,0-.63-.25,6.25,6.25,0,0,0-2.18-.33,6,6,0,0,0-2.15.46,6.12,6.12,0,0,0-.61.29l-.22.11s.07-.06.2-.14a5.05,5.05,0,0,1,.6-.32,5.84,5.84,0,0,1,2.18-.5,5.91,5.91,0,0,1,2.21.37c.26.1.47.2.62.27A.87.87,0,0,1,277.94,182.79Z" transform="translate(-193.14 -82.15)"/><path class="cls-2" d="M277.94,181.82s-.09,0-.23-.1-.36-.15-.63-.24a6,6,0,0,0-4.33.13l-.61.28-.22.11.2-.14a5.26,5.26,0,0,1,.6-.31,5.65,5.65,0,0,1,2.18-.5,5.83,5.83,0,0,1,2.2.36,4.29,4.29,0,0,1,.62.28Z" transform="translate(-193.14 -82.15)"/><path class="cls-2" d="M277.88,180.9l-.23-.09a5.56,5.56,0,0,0-.62-.25,6.18,6.18,0,0,0-4.95.42l-.22.11.2-.15a6.58,6.58,0,0,1,.61-.31,5.78,5.78,0,0,1,2.17-.5,5.93,5.93,0,0,1,2.21.36c.27.11.48.21.62.28Z" transform="translate(-193.14 -82.15)"/><path class="cls-5" d="M218.31,171s.21,24.71,1.46,32.25l31-1.47S248,177.53,249.09,171Z" transform="translate(-193.14 -82.15)"/><path class="cls-2" d="M244.42,181.42c0,.14-4.64.54-10.38.88s-10.41.51-10.42.37,4.64-.54,10.39-.89S244.41,181.28,244.42,181.42Z" transform="translate(-193.14 -82.15)"/><path class="cls-2" d="M244.43,186.65a102.8,102.8,0,0,1-10.38.89,103.09,103.09,0,0,1-10.42.36c0-.14,4.64-.54,10.38-.88S244.42,186.51,244.43,186.65Z" transform="translate(-193.14 -82.15)"/><path class="cls-2" d="M239.16,191.79a34.65,34.65,0,0,1-5.91.62,33.68,33.68,0,0,1-5.94.09,34.1,34.1,0,0,1,5.91-.61A34.33,34.33,0,0,1,239.16,191.79Z" transform="translate(-193.14 -82.15)"/><path class="cls-6" d="M275.94,197.75s-2.5,22.89.72,35.42l30.58-1.34s-6.56-22.58-2.53-32.58Z" transform="translate(-193.14 -82.15)"/><path class="cls-5" d="M276.06,197s.21,24.71,1.47,32.25l31-1.46s-2.72-24.29-1.67-30.79Z" transform="translate(-193.14 -82.15)"/><path class="cls-2" d="M302.17,207.39a102.8,102.8,0,0,1-10.38.89,102.87,102.87,0,0,1-10.41.36c0-.14,4.64-.54,10.38-.88S302.17,207.25,302.17,207.39Z" transform="translate(-193.14 -82.15)"/><path class="cls-2" d="M302.18,212.63c0,.14-4.64.54-10.38.88s-10.4.51-10.41.37a102.8,102.8,0,0,1,10.38-.89A102.87,102.87,0,0,1,302.18,212.63Z" transform="translate(-193.14 -82.15)"/><path class="cls-2" d="M296.92,217.77a35.49,35.49,0,0,1-5.91.61,34.31,34.31,0,0,1-5.94.1,33.32,33.32,0,0,1,5.91-.62A32.57,32.57,0,0,1,296.92,217.77Z" transform="translate(-193.14 -82.15)"/><path class="cls-6" d="M269.6,293.66s-2.51,22.89.71,35.42l30.58-1.34s-6.55-22.57-2.53-32.57Z" transform="translate(-193.14 -82.15)"/><path class="cls-5" d="M269.72,292.93s.21,24.71,1.47,32.24l31-1.46s-2.73-24.29-1.68-30.78Z" transform="translate(-193.14 -82.15)"/><path class="cls-2" d="M295.83,303.31c0,.14-4.64.54-10.38.88s-10.41.51-10.42.37a103.2,103.2,0,0,1,10.39-.89A102.87,102.87,0,0,1,295.83,303.31Z" transform="translate(-193.14 -82.15)"/><path class="cls-2" d="M295.84,308.54c0,.14-4.64.54-10.38.89s-10.41.5-10.42.36,4.64-.54,10.39-.88S295.83,308.4,295.84,308.54Z" transform="translate(-193.14 -82.15)"/><path class="cls-2" d="M290.57,313.68a34.1,34.1,0,0,1-5.91.61,34.33,34.33,0,0,1-5.94.1,34.65,34.65,0,0,1,5.91-.62A33.68,33.68,0,0,1,290.57,313.68Z" transform="translate(-193.14 -82.15)"/><path class="cls-6" d="M226.61,275.15s-2.5,22.89.72,35.42l30.58-1.34s-6.55-22.57-2.53-32.57Z" transform="translate(-193.14 -82.15)"/><path class="cls-5" d="M226.74,274.42s.21,24.71,1.46,32.25l31-1.47s-2.72-24.29-1.67-30.78Z" transform="translate(-193.14 -82.15)"/><path class="cls-2" d="M252.85,284.8c0,.14-4.64.54-10.39.88s-10.4.51-10.41.37a102.8,102.8,0,0,1,10.38-.89A103.09,103.09,0,0,1,252.85,284.8Z" transform="translate(-193.14 -82.15)"/><path class="cls-2" d="M252.86,290c0,.14-4.65.54-10.39.89a102.87,102.87,0,0,1-10.41.36c0-.14,4.64-.54,10.38-.88S252.85,289.89,252.86,290Z" transform="translate(-193.14 -82.15)"/><path class="cls-2" d="M247.59,295.17a34.65,34.65,0,0,1-5.91.62,33.68,33.68,0,0,1-5.94.09,34.1,34.1,0,0,1,5.91-.61A34.33,34.33,0,0,1,247.59,295.17Z" transform="translate(-193.14 -82.15)"/><path class="cls-6" d="M386.06,278.56s-2.5,22.89.72,35.42l30.57-1.34s-6.55-22.57-2.52-32.58Z" transform="translate(-193.14 -82.15)"/><path class="cls-5" d="M386.18,277.83s.21,24.7,1.47,32.24l31-1.46s-2.72-24.29-1.68-30.78Z" transform="translate(-193.14 -82.15)"/><path class="cls-2" d="M412.29,288.2a102.8,102.8,0,0,1-10.38.89c-5.74.35-10.4.51-10.41.37a102.8,102.8,0,0,1,10.38-.89C407.62,288.22,412.28,288.06,412.29,288.2Z" transform="translate(-193.14 -82.15)"/><path class="cls-2" d="M412.3,293.44c0,.14-4.64.54-10.38.88s-10.41.51-10.42.37,4.64-.54,10.39-.89A102.87,102.87,0,0,1,412.3,293.44Z" transform="translate(-193.14 -82.15)"/><path class="cls-2" d="M407,298.58a33.93,33.93,0,0,1-5.91.61,34.33,34.33,0,0,1-5.94.1,34.82,34.82,0,0,1,5.91-.62A33.66,33.66,0,0,1,407,298.58Z" transform="translate(-193.14 -82.15)"/><path class="cls-6" d="M270.23,221.91s-3.12,22.82-9.27,34.19l-29.35-8.7s11.83-20.32,10.34-31Z" transform="translate(-193.14 -82.15)"/><path class="cls-4" d="M270.29,221.17s-6.19,23.92-9.23,30.93l-29.72-8.92s8.53-22.91,9.08-29.46Z" transform="translate(-193.14 -82.15)"/><path class="cls-2" d="M242.44,224.92a103.88,103.88,0,0,1,10,2.87,102.68,102.68,0,0,1,9.86,3.38c0,.13-4.52-1.15-10-2.88A102.35,102.35,0,0,1,242.44,224.92Z" transform="translate(-193.14 -82.15)"/><path class="cls-2" d="M241.16,230c.05-.13,4.53,1.15,10,2.88s9.9,3.24,9.86,3.37-4.53-1.15-10-2.87S241.12,230.13,241.16,230Z" transform="translate(-193.14 -82.15)"/><path class="cls-2" d="M245,236.26a33,33,0,0,1,5.74,1.53,32.79,32.79,0,0,1,5.58,2,34.81,34.81,0,0,1-5.74-1.54A35.33,35.33,0,0,1,245,236.26Z" transform="translate(-193.14 -82.15)"/><path class="cls-6" d="M302.31,246s2.51,22.89-.71,35.42L271,280s6.55-22.58,2.53-32.58Z" transform="translate(-193.14 -82.15)"/><path class="cls-4" d="M271,240.6s-2.09,27.42-3.77,32.66l27.85,2.93,4.19-4s2.72-20.1,2.3-26.59Z" transform="translate(-193.14 -82.15)"/><polygon class="cls-1" points="102.59 189.84 101.96 194.03 106.15 190.05 102.59 189.84"/><path class="cls-2" d="M296,255.18a21.79,21.79,0,0,1-3.12-.36l-7.5-1.06-7.51-.94a21.24,21.24,0,0,1-3.11-.46,17.59,17.59,0,0,1,3.15.1c1.93.14,4.61.4,7.54.79s5.59.83,7.49,1.2A16.93,16.93,0,0,1,296,255.18Z" transform="translate(-193.14 -82.15)"/><path class="cls-2" d="M294.83,260.9a16.07,16.07,0,0,1-3-.1c-1.86-.13-4.42-.38-7.23-.73s-5.36-.76-7.19-1.09a17.83,17.83,0,0,1-2.94-.65,16.78,16.78,0,0,1,3,.29l7.19.93,7.2.89A17.61,17.61,0,0,1,294.83,260.9Z" transform="translate(-193.14 -82.15)"/><path class="cls-2" d="M293.09,266.16a82.85,82.85,0,0,1-9.36-1,85.42,85.42,0,0,1-9.3-1.51,86,86,0,0,1,9.37,1A88.51,88.51,0,0,1,293.09,266.16Z" transform="translate(-193.14 -82.15)"/><path class="cls-6" d="M528.09,275s2.51,22.88-.71,35.42l-30.58-1.34s6.55-22.58,2.53-32.58Z" transform="translate(-193.14 -82.15)"/><path class="cls-4" d="M496.8,269.65s-2.09,27.42-3.77,32.65l27.85,2.93,4.19-4s2.72-20.11,2.3-26.6Z" transform="translate(-193.14 -82.15)"/><polygon class="cls-1" points="328.37 218.89 327.74 223.08 331.93 219.1 328.37 218.89"/><path class="cls-2" d="M521.82,284.23a21.12,21.12,0,0,1-3.12-.37l-7.49-1.05-7.52-.94a18.32,18.32,0,0,1-3.1-.47,17.46,17.46,0,0,1,3.14.1c1.94.14,4.61.4,7.54.79s5.59.84,7.49,1.21A16.63,16.63,0,0,1,521.82,284.23Z" transform="translate(-193.14 -82.15)"/><path class="cls-2" d="M520.61,290a16.06,16.06,0,0,1-3-.1c-1.86-.14-4.41-.38-7.23-.74s-5.35-.75-7.19-1.08a16,16,0,0,1-2.94-.66,19.41,19.41,0,0,1,3,.29l7.2.94,7.2.88A16.86,16.86,0,0,1,520.61,290Z" transform="translate(-193.14 -82.15)"/><path class="cls-2" d="M518.87,295.21a169.44,169.44,0,0,1-18.66-2.5,83.13,83.13,0,0,1,9.37,1A85.48,85.48,0,0,1,518.87,295.21Z" transform="translate(-193.14 -82.15)"/><path class="cls-6" d="M491.52,158.37s2.5,22.88-.72,35.41l-30.58-1.33s6.55-22.58,2.53-32.58Z" transform="translate(-193.14 -82.15)"/><path class="cls-4" d="M460.22,153s-2.09,27.43-3.76,32.66l27.84,2.93,4.19-4s2.72-20.1,2.31-26.59Z" transform="translate(-193.14 -82.15)"/><polygon class="cls-1" points="291.79 102.26 291.16 106.45 295.35 102.47 291.79 102.26"/><path class="cls-2" d="M485.25,167.59a18.62,18.62,0,0,1-3.13-.36l-7.49-1-7.51-.94a19.71,19.71,0,0,1-3.11-.47,17.47,17.47,0,0,1,3.14.1c1.94.14,4.61.4,7.55.79s5.58.84,7.49,1.21A19.16,19.16,0,0,1,485.25,167.59Z" transform="translate(-193.14 -82.15)"/><path class="cls-2" d="M484,173.31a16.47,16.47,0,0,1-3-.09c-1.85-.14-4.41-.39-7.23-.74s-5.35-.75-7.18-1.08a15.73,15.73,0,0,1-2.94-.66,19.44,19.44,0,0,1,3,.29l7.2.93,7.2.89A19,19,0,0,1,484,173.31Z" transform="translate(-193.14 -82.15)"/><path class="cls-2" d="M482.29,178.58a84.67,84.67,0,0,1-9.36-1,82.65,82.65,0,0,1-9.29-1.51,87.69,87.69,0,0,1,9.36,1A85.48,85.48,0,0,1,482.29,178.58Z" transform="translate(-193.14 -82.15)"/><path class="cls-6" d="M373.83,168.34s2.5,22.89-.72,35.42l-30.58-1.34s6.55-22.58,2.53-32.58Z" transform="translate(-193.14 -82.15)"/><path class="cls-4" d="M342.53,163s-2.09,27.42-3.76,32.65l27.84,2.94,4.19-4s2.73-20.1,2.31-26.6Z" transform="translate(-193.14 -82.15)"/><polygon class="cls-1" points="174.1 112.23 173.47 116.42 177.66 112.44 174.1 112.23"/><path class="cls-2" d="M367.56,177.57a21.69,21.69,0,0,1-3.13-.36l-7.49-1.06-7.51-.94a20.64,20.64,0,0,1-3.11-.46,16.37,16.37,0,0,1,3.14.1c1.94.14,4.61.4,7.55.79s5.58.83,7.49,1.2A17.23,17.23,0,0,1,367.56,177.57Z" transform="translate(-193.14 -82.15)"/><path class="cls-2" d="M366.34,183.29a16,16,0,0,1-3-.1c-1.85-.13-4.41-.38-7.23-.74s-5.35-.75-7.18-1.08a15.73,15.73,0,0,1-2.94-.66,18.86,18.86,0,0,1,3,.3l7.2.93,7.2.88A16.86,16.86,0,0,1,366.34,183.29Z" transform="translate(-193.14 -82.15)"/><path class="cls-2" d="M364.6,188.55a83.08,83.08,0,0,1-9.36-1,85.48,85.48,0,0,1-9.29-1.51,86,86,0,0,1,9.36,1A85.48,85.48,0,0,1,364.6,188.55Z" transform="translate(-193.14 -82.15)"/><polygon class="cls-6" points="139.65 131.38 142.06 187.34 211.91 188.18 208.78 132.12 139.65 131.38"/><rect class="cls-2" x="138.84" y="130.98" width="69.39" height="52.4"/><path class="cls-1" d="M401.37,265.53s0-.33,0-1,0-1.58,0-2.8c0-2.46,0-6-.05-10.6,0-9.14-.07-22.21-.11-38l.21.21L332,213.4h0l.26-.26c0,18.84,0,36.68,0,52.39l-.24-.23,50,.12,14.23.06,3.79,0h1.32a1.77,1.77,0,0,1-.31,0h-1l-3.74,0-14.18.06-50.2.12h-.23v-.24c0-15.71,0-33.55,0-52.39v-.26H332l69.38,0h.21v.22c0,15.87-.08,29-.11,38.15,0,4.55,0,8.11-.05,10.56q0,1.78,0,2.76C401.39,265.23,401.37,265.53,401.37,265.53Z" transform="translate(-193.14 -82.15)"/><rect class="cls-2" x="147.21" y="142.08" width="28.13" height="35.4"/><path class="cls-1" d="M368.48,259.64a1.62,1.62,0,0,1,0-.18c0-.14,0-.3,0-.51,0-.47,0-1.11,0-1.93,0-1.72,0-4.17-.07-7.27,0-6.23-.07-15.05-.11-25.51l.23.23-28.13,0,.26-.26h0v9.63c0,3.14,0,6.21,0,9.18,0,5.95,0,11.52,0,16.58l-.22-.22,20.36.12,5.72,0,1.51,0a3.36,3.36,0,0,1,.54,0,2.46,2.46,0,0,1-.49,0l-1.48,0-5.66.05-20.5.12h-.21v-.22c0-5.06,0-10.63,0-16.58,0-3,0-6,0-9.18v-9.63h0l.26-.26,28.13,0h.23v.23c0,10.53-.08,19.39-.11,25.66,0,3.08-.05,5.51-.07,7.22,0,.8,0,1.43,0,1.89A4.8,4.8,0,0,1,368.48,259.64Z" transform="translate(-193.14 -82.15)"/><rect class="cls-2" x="148.29" y="133.98" width="53.91" height="5.1"/><path class="cls-1" d="M395.34,221.24a1.5,1.5,0,0,1,0-.35q0-.37,0-1c0-.89,0-2.15-.06-3.76l.11.1c-9.1.09-29.82.16-53.91.16h0l.26-.26h0v5.08l-.26-.26,38.2.11,11.47.08,3.13,0,.82,0,.29,0-.26,0h-.78l-3.07,0-11.41.08-38.39.11h-.26v-5.34h0c.11-.12-.26.26.26-.26h0c24.09,0,44.81.06,53.91.15h.1v.11c0,1.64,0,2.91-.06,3.82l0,1C395.35,221.14,395.34,221.25,395.34,221.24Z" transform="translate(-193.14 -82.15)"/><rect class="cls-2" x="178.78" y="142.08" width="23.41" height="21.34"/><path class="cls-1" d="M395.34,245.57a2.18,2.18,0,0,1,0-.41c0-.3,0-.68,0-1.16,0-1.05,0-2.51-.06-4.35,0-3.76-.07-9.06-.12-15.41l.23.22-23.41,0c-.06.05.49-.49.25-.26h0v11.21c0,3.58,0,7,0,10.1l-.23-.22,16.89.11,4.79.06,1.28,0,.46,0a2,2,0,0,1-.41,0l-1.24,0-4.74.06-17,.11h-.22v-.23c0-3.13,0-6.52,0-10.1V230c0-.94,0-1.89,0-2.84v-2.87h0c-.23.23.32-.32.27-.26l23.41,0h.22v.22c-.05,6.41-.09,11.76-.12,15.55,0,1.82,0,3.26-.05,4.3,0,.46,0,.83,0,1.12S395.34,245.58,395.34,245.57Z" transform="translate(-193.14 -82.15)"/><rect class="cls-2" x="178.78" y="166.76" width="23.41" height="10.72"/><path class="cls-1" d="M395.34,259.64a4.53,4.53,0,0,1,0-.78c0-.55,0-1.26-.05-2.16,0-1.89-.06-4.54-.1-7.78l.19.19-23.41.07c-.24.23.31-.32.25-.26h0v5.51c0,1.79,0,3.53,0,5.19l-.25-.25,16.74.12,4.88.07,1.32,0,.48,0a2.11,2.11,0,0,1-.42,0l-1.27,0-4.82.07-16.91.12h-.24v-.25c0-1.66,0-3.4,0-5.19,0-.9,0-1.81,0-2.73v-2.78h0c-.05.06.5-.49.27-.26l23.41.07h.19v.19c0,3.29-.08,6-.11,7.9,0,.87,0,1.58,0,2.11A7,7,0,0,1,395.34,259.64Z" transform="translate(-193.14 -82.15)"/><path class="cls-2" d="M367.78,224.3c-8.7,12-18.72,23.31-27.43,35.34" transform="translate(-193.14 -82.15)"/><path class="cls-1" d="M340.35,259.64a10.6,10.6,0,0,1,1-1.48c.64-.93,1.6-2.26,2.81-3.89,2.41-3.25,5.87-7.65,9.74-12.46s7.38-9.18,9.86-12.37l2.94-3.78a11.74,11.74,0,0,1,1.12-1.36,11,11,0,0,1-.95,1.48c-.65.93-1.61,2.26-2.81,3.89-2.42,3.25-5.88,7.65-9.75,12.46s-7.37,9.17-9.86,12.37l-2.94,3.78A10.57,10.57,0,0,1,340.35,259.64Z" transform="translate(-193.14 -82.15)"/><line class="cls-2" x1="147.21" y1="142.08" x2="175.34" y2="177.48"/><path class="cls-1" d="M368.48,259.64c-.11.09-6.5-7.76-14.27-17.54s-14-17.77-13.86-17.86,6.5,7.76,14.27,17.54S368.59,259.55,368.48,259.64Z" transform="translate(-193.14 -82.15)"/><circle class="cls-5" cx="137.66" cy="142.16" r="4.4"/><path class="cls-1" d="M330.8,228.74a4.43,4.43,0,1,1,4.42-4.43A4.44,4.44,0,0,1,330.8,228.74Zm0-8.8a4.38,4.38,0,1,0,4.37,4.37A4.38,4.38,0,0,0,330.8,219.94Z" transform="translate(-193.14 -82.15)"/><circle class="cls-5" cx="209.63" cy="131.48" r="4.4"/><path class="cls-1" d="M402.77,218.06a4.43,4.43,0,1,1,4.43-4.43A4.43,4.43,0,0,1,402.77,218.06Zm0-8.8a4.38,4.38,0,1,0,4.38,4.37A4.37,4.37,0,0,0,402.77,209.26Z" transform="translate(-193.14 -82.15)"/><polygon class="cls-6" points="234.11 110.95 213.4 121.6 203.38 120.18 208.75 110.68 230.59 102.99 234.11 110.95"/><polygon class="cls-4" points="202.52 118.23 207.6 110.06 230.04 101.91 234.55 110.77 212.79 119.46 202.52 118.23"/><path class="cls-2" d="M420.66,189.33a12.71,12.71,0,0,1-2.17,1c-1.37.55-3.26,1.3-5.36,2.1l-5.39,2c-1.37.5-2.27.8-2.22.77-.17-.21,3.24-1.67,7.42-3.27S420.61,189.17,420.66,189.33Z" transform="translate(-193.14 -82.15)"/><path class="cls-2" d="M417.16,193.35a19.9,19.9,0,0,1-4.83,2.29,19.64,19.64,0,0,1-5.16,1.43,218.73,218.73,0,0,1,10-3.72Z" transform="translate(-193.14 -82.15)"/><polygon class="cls-6" points="264.55 119.09 272.13 159.13 347.81 144.8 334.66 105.82 264.55 119.09"/><rect class="cls-2" x="458.83" y="194.44" width="72.96" height="36.1" transform="translate(-224.02 13.69) rotate(-10.72)"/><path class="cls-1" d="M534.51,223.44l-.14-.64c-.09-.44-.21-1.06-.37-1.85-.32-1.64-.79-4-1.39-7.08-1.18-6.13-2.89-15-5-25.86l.23.15L456.17,201.8h0l.21-.31C458.73,214,461,226,463.07,237l-.29-.2,51.48-9.62,14.87-2.75,4-.73,1-.18.36-.05-.32.08-1,.2-3.92.78-14.79,2.87-51.6,9.88-.24.05,0-.24-6.73-35.47-.05-.25.26-.05h0l71.69-13.51.19,0,0,.19c2,10.95,3.68,19.84,4.82,26,.55,3.05,1,5.42,1.29,7.05.14.79.24,1.4.32,1.83S534.51,223.44,534.51,223.44Z" transform="translate(-193.14 -82.15)"/><rect class="cls-2" x="466.43" y="205.96" width="20.17" height="20.17" transform="translate(-225.01 10.25) rotate(-10.72)"/><path class="cls-1" d="M488.3,224.08a2.58,2.58,0,0,1-.1-.38c-.06-.28-.13-.64-.23-1.08-.2-1-.47-2.34-.82-4l-2.82-14.27.26.18-19.81,3.78c0,.07.39-.57.21-.3h0v.06l0,.09,0,.17.06.34.13.67c.09.45.17.9.26,1.35.16.89.33,1.77.5,2.65.32,1.74.65,3.46,1,5.12.62,3.33,1.21,6.47,1.74,9.35l-.26-.17,14.32-2.6,4.06-.71,1.09-.18.39,0a1.15,1.15,0,0,1-.33.09l-1,.23-4,.81-14.42,2.85-.22,0,0-.22c-.55-2.88-1.16-6-1.79-9.35q-.48-2.49-1-5.12c-.17-.87-.34-1.76-.5-2.65-.09-.44-.17-.89-.26-1.34l-.13-.68-.06-.34,0-.17,0-.08v-.07h0l.21-.31L484.51,204l.22,0,0,.22c1.08,5.95,2,10.92,2.62,14.46.3,1.69.53,3,.7,4,.07.42.13.77.17,1A1.3,1.3,0,0,1,488.3,224.08Z" transform="translate(-193.14 -82.15)"/><path class="cls-1" d="M488.3,224.08s-.11-.51-.39-1.41a7,7,0,0,0-2.1-3.33h0a7.4,7.4,0,0,0-2.45-1.49,7.58,7.58,0,0,0-3.33-.38l-.47,0,.25-.4a5,5,0,0,0,.18-4.74,4.42,4.42,0,0,0-1.75-2,4.74,4.74,0,0,0-2.68-.63,5,5,0,0,0-2.9,1.08,4.34,4.34,0,0,0-1.54,2.49,5.08,5.08,0,0,0,1.63,4.94l.25.2-.27.17a8.57,8.57,0,0,0-3,3,9.26,9.26,0,0,0-1.15,3.11,13.08,13.08,0,0,0-.08,2.92,2.9,2.9,0,0,1-.17-.75,7.93,7.93,0,0,1,0-2.2,9,9,0,0,1,1.09-3.26,8.79,8.79,0,0,1,3.07-3.24l0,.36a5.47,5.47,0,0,1-1.84-5.39,4.76,4.76,0,0,1,1.7-2.79,5.51,5.51,0,0,1,3.19-1.2,5.18,5.18,0,0,1,3,.7,5.07,5.07,0,0,1,1.95,2.19,5.5,5.5,0,0,1-.25,5.21L480,217a8,8,0,0,1,3.52.45,7.65,7.65,0,0,1,2.54,1.62h0a6.79,6.79,0,0,1,2.08,3.55,8.49,8.49,0,0,1,.21,1.08C488.31,224,488.32,224.08,488.3,224.08Z" transform="translate(-193.14 -82.15)"/><path class="cls-2" d="M492.11,203.57l17.19-3.26" transform="translate(-193.14 -82.15)"/><path class="cls-1" d="M509.3,200.31a70.84,70.84,0,0,1-8.55,1.89,73.17,73.17,0,0,1-8.64,1.37,73.82,73.82,0,0,1,8.55-1.89A75.75,75.75,0,0,1,509.3,200.31Z" transform="translate(-193.14 -82.15)"/><path class="cls-2" d="M492.87,207.56l3.47-.66" transform="translate(-193.14 -82.15)"/><path class="cls-1" d="M496.34,206.9c0,.14-.73.41-1.69.59s-1.75.21-1.78.07.73-.4,1.69-.58S496.31,206.76,496.34,206.9Z" transform="translate(-193.14 -82.15)"/><path class="cls-1" d="M524.91,208.69c0,.14-6.83,1.56-15.31,3.16s-15.39,2.8-15.42,2.65S501,213,509.5,211.34,524.88,208.55,524.91,208.69Z" transform="translate(-193.14 -82.15)"/><path class="cls-1" d="M525.74,212.13c0,.14-6.87,1.56-15.4,3.18s-15.47,2.81-15.5,2.67,6.87-1.57,15.4-3.18S525.71,212,525.74,212.13Z" transform="translate(-193.14 -82.15)"/><path class="cls-1" d="M526,216.22a6.09,6.09,0,0,1-1.18.32l-3.24.7c-2.74.57-6.53,1.32-10.72,2.11s-8,1.48-10.76,2l-3.27.53a5.74,5.74,0,0,1-1.21.13,5.12,5.12,0,0,1,1.17-.33L500,221c2.74-.57,6.53-1.32,10.73-2.11s8-1.49,10.75-2l3.27-.54A5.25,5.25,0,0,1,526,216.22Z" transform="translate(-193.14 -82.15)"/><path class="cls-5" d="M494.73,199.67a6.94,6.94,0,0,1,.76-.41,21,21,0,0,1,2.32-.93,21.3,21.3,0,0,1,9.1-.85,19.36,19.36,0,0,1,6.11,1.75,8.51,8.51,0,0,1,2.82,2.22,4.29,4.29,0,0,1,.86,3.71,6.32,6.32,0,0,1-2.36,3.24,19.76,19.76,0,0,1-3.56,2.11,33.46,33.46,0,0,1-8.18,2.8,19.65,19.65,0,0,1-8.64-.12,12.86,12.86,0,0,1-3.84-1.58,6.35,6.35,0,0,1-2.62-3,4.48,4.48,0,0,1,.42-3.79,9.3,9.3,0,0,1,2.44-2.62,24.34,24.34,0,0,1,5.59-3,24.7,24.7,0,0,1,9-1.6,22.48,22.48,0,0,1,2.48.19,5.47,5.47,0,0,1,.86.16,5.16,5.16,0,0,1-.87-.05c-.56,0-1.4-.1-2.47-.09a25.05,25.05,0,0,0-8.88,1.74,23.65,23.65,0,0,0-5.45,3,9,9,0,0,0-2.31,2.51,4.05,4.05,0,0,0-.37,3.4,5.89,5.89,0,0,0,2.44,2.78,12.41,12.41,0,0,0,3.69,1.51,19.61,19.61,0,0,0,8.43.1,33.24,33.24,0,0,0,8.05-2.75,19.07,19.07,0,0,0,3.47-2,5.75,5.75,0,0,0,2.2-3,3.78,3.78,0,0,0-.75-3.31,8.08,8.08,0,0,0-2.66-2.11,19.4,19.4,0,0,0-6-1.78,21.68,21.68,0,0,0-9,.68c-1,.32-1.81.61-2.33.83A4.28,4.28,0,0,1,494.73,199.67Z" transform="translate(-193.14 -82.15)"/><path class="cls-5" d="M515.29,199.15a43.73,43.73,0,0,1,5.08-4.46,44.61,44.61,0,0,1,5.41-4.07,44.31,44.31,0,0,1-5.08,4.47A43.84,43.84,0,0,1,515.29,199.15Z" transform="translate(-193.14 -82.15)"/><path class="cls-5" d="M521.72,198.29a37.29,37.29,0,0,1-6,1.48l-.71.15-.4.08.09-.39a12.51,12.51,0,0,1,2.17-5c.13.06-1,2.15-1.67,5.08l-.3-.32.72-.15A35.84,35.84,0,0,1,521.72,198.29Z" transform="translate(-193.14 -82.15)"/><path class="cls-5" d="M511,202.62a88.41,88.41,0,0,1-9.43,1.71,90.63,90.63,0,0,1-9.52,1.2,88.32,88.32,0,0,1,9.44-1.71A87.21,87.21,0,0,1,511,202.62Z" transform="translate(-193.14 -82.15)"/><path class="cls-5" d="M489.54,195a4.4,4.4,0,1,1-5.14-3.5A4.4,4.4,0,0,1,489.54,195Z" transform="translate(-193.14 -82.15)"/><path class="cls-1" d="M485.21,200.25a4.43,4.43,0,1,1,.83-.08A4.76,4.76,0,0,1,485.21,200.25Zm0-8.81a4.65,4.65,0,0,0-.82.08,4.38,4.38,0,1,0,5.11,3.49,4.39,4.39,0,0,0-4.29-3.57Z" transform="translate(-193.14 -82.15)"/><polygon class="cls-3" points="3.63 7.96 361.6 17.71 361.82 7.04 3.63 7.96"/><rect class="cls-4" width="369.5" height="7.96"/><text class="cls-7" transform="translate(46.02 41.53)"><tspan class="cls-8">M</tspan><tspan x="9.72" y="0">odule</tspan></text><text class="cls-7" transform="translate(164.89 40.49)">E<tspan class="cls-9" x="5.9" y="0">x</tspan><tspan x="11.28" y="0">e</tspan><tspan class="cls-10" x="17.29" y="0">r</tspan><tspan x="21.1" y="0">cises</tspan></text><text class="cls-7" transform="translate(287.94 41.02)"><tspan class="cls-11">T</tspan><tspan x="5.2" y="0">asks</tspan></text></svg>